<?xml version="1.0" encoding="UTF-8" standalone="no"?>
<svg
   id="svg"
   version="1.1"
   width="368"
   height="232"
   viewBox="0 0 368 232"
   sodipodi:docname="image2vector.svg"
   inkscape:version="1.3 (0e150ed6c4, 2023-07-21)"
   xmlns:inkscape="http://www.inkscape.org/namespaces/inkscape"
   xmlns:sodipodi="http://sodipodi.sourceforge.net/DTD/sodipodi-0.dtd"
   xmlns="http://www.w3.org/2000/svg"
   xmlns:svg="http://www.w3.org/2000/svg">
  <defs
     id="defs1" />
  <sodipodi:namedview
     id="namedview1"
     pagecolor="#ffffff"
     bordercolor="#999999"
     borderopacity="1"
     inkscape:showpageshadow="2"
     inkscape:pageopacity="0"
     inkscape:pagecheckerboard="0"
     inkscape:deskcolor="#d1d1d1"
     inkscape:zoom="2.2875432"
     inkscape:cx="240.43262"
     inkscape:cy="101.63742"
     inkscape:window-width="1920"
     inkscape:window-height="1115"
     inkscape:window-x="0"
     inkscape:window-y="0"
     inkscape:window-maximized="1"
     inkscape:current-layer="svg" />
  <path
     id="path1"
     d="m 216.43244,46.49632 c -1.696,0.126 -4.394,0.409 -5.996,0.629 -1.601,0.22 -4.859,0.532 -7.238,0.695 -5.381,0.368 -5.265,0.291 -5.265,3.492 0,3.333 0.24,3.561 4.156,3.948 4.678,0.463 5.554,0.817 6.591,2.666 l 0.863,1.536 0.243,8.043 c 0.516,17.05 0.145,77.26299 -0.48,77.88799 -1.279,1.28 -4.235,2.139 -7.36,2.139 -3.736,0 -4.013,0.249 -4.013,3.613 0,3.414 -1.883,3.093 18.211,3.105 19.878,0.012 17.982,0.337 17.982,-3.081 0,-3.473 -0.175,-3.637 -3.884,-3.637 -3.224,0 -7.083,-1.121 -7.708,-2.239 -0.245,-0.441 -0.345,-12.094 -0.422,-49.369995 -0.091,-43.732995 -0.144,-48.841995 -0.519,-49.262995 -0.455,-0.51 -0.493,-0.511 -5.161,-0.164 m 42.225,-0.008 c -1.622,0.121 -4.397,0.405 -6.166,0.629 -1.77,0.225 -5.087,0.542 -7.373,0.706 -5.164,0.37 -5.094,0.323 -5.094,3.383 0,3.47 0.2,3.71 3.271,3.94 5.456,0.409 6.612,0.961 8.024,3.828 l 0.636,1.292 0.091,46.58699 c 0.08,40.683 0.142,46.638 0.489,46.984 0.406,0.407 4.125,0.581 5.025,0.235 0.604,-0.231 2.175,-2.476 2.553,-3.649 0.298,-0.922 2.551,-3.965 2.934,-3.963 0.092,0.001 1.045,0.815 2.118,1.81 2.982,2.766 3.855,3.451 5.017,3.935 0.587,0.245 1.315,0.678 1.617,0.961 0.301,0.284 1.51,0.809 2.684,1.168 1.175,0.358 2.679,0.872 3.343,1.141 1.996,0.81 11.857,0.715 14.075,-0.135 0.885,-0.339 2.506,-0.849 3.603,-1.133 1.097,-0.285 2.187,-0.692 2.422,-0.905 0.235,-0.213 1.092,-0.681 1.904,-1.04 0.812,-0.359 1.643,-0.854 1.848,-1.101 0.204,-0.246 0.742,-0.632 1.196,-0.858 0.991,-0.493 6.386,-5.949 7.275,-7.356 0.347,-0.55 0.759,-1.079 0.915,-1.176 0.156,-0.097 0.6,-0.8 0.986,-1.564 0.385,-0.764 0.928,-1.679 1.206,-2.034 0.277,-0.355 0.7,-1.317 0.938,-2.138 0.239,-0.821 0.663,-1.802 0.943,-2.181 0.296,-0.4 0.742,-1.92 1.063,-3.626 0.305,-1.616 0.719,-3.782 0.919,-4.814 0.475,-2.449 0.475,-5.579 -10e-4,-8.58 -0.966,-6.084 -1.474,-8.49 -1.966,-9.307 -0.292,-0.484 -0.793,-1.685 -1.115,-2.67 -0.321,-0.984 -0.768,-1.941 -0.992,-2.127 -0.225,-0.187 -0.698,-0.911 -1.053,-1.61 -0.354,-0.7 -0.772,-1.350995 -0.928,-1.446995 -0.156,-0.097 -0.58,-0.64499 -0.941,-1.21699 -0.906,-1.434 -5.279,-5.733005 -6.572,-6.460005 -0.583,-0.327 -1.06,-0.7 -1.06,-0.829 0,-0.128 -0.671,-0.53 -1.49,-0.892 -0.82,-0.363 -1.823,-0.905 -2.23,-1.206 -0.406,-0.3 -1.575,-0.772 -2.598,-1.047 -1.022,-0.275 -2.583,-0.77 -3.468,-1.1 -2.112,-0.787 -10.527,-0.858 -13.002,-0.11 -0.811,0.245 -2.592,0.74 -3.958,1.1 -1.366,0.36 -3.038,1.006 -3.715,1.436 -0.678,0.429 -1.569,0.855 -1.98,0.945 -0.411,0.09 -0.971,0.412 -1.244,0.714 -0.274,0.302 -0.98,0.792 -1.57,1.088 -0.59,0.297 -1.276,0.718 -1.524,0.936 -1.477,1.297 -1.559,0.037 -1.559,-24.129 0,-26.055 0.777,-22.885 -5.496,-22.414 m -150.474,37.803 c -0.776,0.129 -2.103,0.58 -2.949,1.002 -0.845,0.422 -1.859,0.845 -2.253,0.94 -0.394,0.095 -1.058,0.457 -1.475,0.805 -2.388003,1.993 -4.721008,2.006 -7.594008,0.042 -0.516,-0.353 -1.662,-0.822 -2.547,-1.043 -0.885,-0.221 -2.333,-0.679 -3.217,-1.019 -2.182,-0.838 -10.996,-0.92 -13.003,-0.121 -0.663,0.264 -2.159,0.762 -3.323,1.107 -1.165,0.345 -2.445,0.869 -2.846,1.166 -0.401,0.296 -1.169,0.722 -1.707,0.947 -1.711,0.715 -5.926,4.391 -6.931,6.045 -0.319,0.526 -0.906,1.379 -1.303,1.895005 -0.397,0.516 -0.862,1.383 -1.034,1.927 -0.172,0.544 -0.553,1.294 -0.846,1.66699 -3.081,3.915995 -1.657,16.608995 2.415,21.520995 0.467,0.563 1.163,1.663 1.546,2.443 l 0.698,1.418 -0.533,0.592 c -3.638,4.051 -4.708,15.664 -1.833,19.901 0.376,0.554 0.684,1.162 0.684,1.351 0,0.189 0.422,0.741 0.938,1.228 1.519,1.433 1.22,3.108 -0.711,3.972 -1.925,0.862 -5.547,4.302 -6.442,6.119 -0.27,0.549 -0.726,1.36 -1.012,1.804 -1.427,2.207 -1.259,10.116 0.25,11.794 0.265,0.295 0.725,1.019 1.022,1.609 0.831,1.651 5.558,5.938 7.391,6.703 0.525,0.22 1.526,0.762 2.225,1.205 0.698,0.443 1.475,0.805 1.726,0.805 0.251,0 1.162,0.373 2.025,0.828 0.897,0.474 2.603,1.035 3.982,1.311 1.327,0.265 3.378,0.748 4.557,1.072 4.364,1.2 16.103,1.047 20.524,-0.267 0.966,-0.287 2.770005,-0.715 4.009008,-0.95 1.239,-0.235 2.74,-0.709 3.337,-1.054 0.597,-0.346 1.628,-0.77 2.291,-0.943 0.664,-0.173 1.576,-0.594 2.028,-0.936 0.452,-0.341 1.279,-0.812 1.838,-1.045 2.405,-1.005 7.411,-5.969 8.095,-8.026 0.246,-0.741 0.701,-1.778 1.013,-2.304 0.858,-1.453 0.848,-8.471 -0.015,-10.084 -0.319,-0.596 -0.767,-1.797 -0.995,-2.669 -0.227,-0.872 -0.659,-1.892 -0.96,-2.267 -0.3,-0.375 -0.775,-1.104 -1.055,-1.62 -0.637,-1.175 -3.913,-4.468 -4.989,-5.015 -0.442,-0.226 -1.046,-0.629 -1.34,-0.896 -0.295,-0.268 -1.321,-0.782 -2.279,-1.143 -0.959,-0.362 -2.346,-0.905 -3.083,-1.207 -3.41,-1.397 -9.786008,-2.022 -22.520008,-2.207 -6.488,-0.095 -12.109,-0.281 -12.49,-0.415 -0.988,-0.347 -3.102,-2.287 -3.501,-3.212 -0.185,-0.432 -0.584,-1.147 -0.887,-1.589 -0.935,-1.37 -0.802,-5.744 0.228,-7.463 1.122,-1.874 1.665,-2.039 3.423,-1.037 0.787,0.448 2.165,1.004 3.064,1.236 0.898,0.231 2.21,0.676 2.916,0.988 2.913,1.288 11.323,1.136 15.557,-0.281 5.19,-1.738 6.818,-2.726 10.282008,-6.238 2.057,-2.085 3.025,-3.312 3.565,-4.519 0.25,-0.559 0.707,-1.356 1.014,-1.772 0.308,-0.416 0.813,-1.661 1.123,-2.766 0.311,-1.105 0.654,-2.129 0.764,-2.277 0.826,-1.11 1.088,-6.796 0.42,-9.115 -1.359,-4.717985 -2.181,-6.574985 -4.358,-9.83399 -0.636,-0.953 -0.667,-2.096 -0.058,-2.096 0.137,0 0.702,-0.404 1.256,-0.897 1.165,-1.039 4.525,-2.398 5.619,-2.272 0.716,0.082 0.757,0.164 0.928,1.895 0.658,6.661005 5.81,9.35999 9.874,5.174005 l 1.207,-1.242005 v -2.888 -2.888 l -1.036,-1.504 c -2.409,-3.497 -6.124,-4.488 -12.709,-3.391 m 48.731,0.318 c -0.958,0.183 -1.879,0.42 -2.047,0.526 -0.167,0.106 -1.422,0.491 -2.788,0.857 -1.366,0.365 -2.918,0.958 -3.449,1.316 -0.531,0.359 -1.266,0.737 -1.635,0.841 -0.369,0.103 -1.093,0.519 -1.609,0.923 -0.516,0.405 -1.331,0.939 -1.811,1.187 -0.956,0.495 -6.469,5.887005 -7.228,7.071005 -0.26,0.406 -0.866,1.26 -1.347,1.898 -0.48,0.63799 -0.874,1.312985 -0.874,1.500985 0,0.188 -0.353,0.829 -0.785,1.426 -0.432,0.596 -0.964,1.67 -1.181,2.386 -0.218,0.716 -0.697,1.965 -1.067,2.776 -2.375,5.218 -2.41,20.013 -0.058,24.705 0.343,0.685 0.828,1.952 1.077,2.815 0.25,0.863 0.726,1.93 1.06,2.373 0.333,0.442 0.852,1.362 1.152,2.043 0.3,0.681 0.682,1.323 0.847,1.425 0.166,0.103 0.708,0.812 1.203,1.576 3.07,4.733 11.573,10.952 16.385,11.984 0.737,0.158 2.245,0.61 3.351,1.004 3.114,1.109 11.576,1.105 14.238,-0.006 0.974,-0.407 2.422,-0.931 3.217,-1.164 0.795,-0.234 1.687,-0.64 1.982,-0.904 0.295,-0.264 0.959,-0.693 1.475,-0.954 1.364,-0.69 3.854,-2.929 5.653,-5.085 2.673,-3.202 2.866,-3.472 3.573,-4.973 0.378,-0.804 0.928,-1.887 1.222,-2.407 1.687,-2.985 1.034,-5.622 -1.393,-5.622 -2.294,0 -3.191,0.672 -3.848,2.88 -1.034,3.476 -6.276,10.146 -8.648,11.005 -0.393,0.142 -1.618,0.605 -2.722,1.029 -2.801,1.074 -7.434,1.099 -10.325,0.055 -1.032,-0.373 -2.307,-0.758 -2.832,-0.856 -2.787,-0.519 -8.27,-5.433 -9.647,-8.646 -0.309,-0.722 -0.756,-1.526 -0.993,-1.788 -0.396,-0.438 -1.421,-3.855 -2.35,-7.835 -0.644,-2.757 -0.843,-10.643 -0.283,-11.203 0.425,-0.425 1.956,-0.46 20.615,-0.475 19.585,-0.015 22.395,-0.106 23.032,-0.744 0.989,-0.988 0.057,-13.194 -1.117,-14.64 -0.126,-0.156 -0.487,-1.153 -0.802,-2.217 -0.315,-1.062995 -0.692,-2.005995 -0.838,-2.096995 -0.147,-0.09 -0.616,-0.856 -1.043,-1.702 -0.427,-0.846 -0.975,-1.702995 -1.218,-1.904995 -0.243,-0.201 -0.632,-0.734 -0.864,-1.184 -0.784,-1.516 -4.694,-4.911 -6.637,-5.763 -0.732,-0.321 -1.524,-0.759 -1.761,-0.973 -0.237,-0.214 -1.568,-0.687 -2.959,-1.05 -1.391,-0.363 -3.173,-0.843 -3.962,-1.066 -1.985,-0.562 -7.772,-0.762 -9.961,-0.343 m -69.661008,6.732 c 2.04,1.058 4.28,3.154 4.735,4.429995 0.135,0.379 0.581,1.533 0.991,2.565 1.255,3.154995 1.459,16.596995 0.288,18.921995 -0.254,0.505 -0.688,1.554 -0.964,2.333 -0.718,2.028 -2.533,3.92 -5.029,5.245 l -2.075,1.101 -3.754,0.006 -3.753,0.007 -1.877,-1.031 c -2.249,-1.235 -3.216,-2.097 -3.947,-3.519 -0.301,-0.585 -0.766,-1.369 -1.033,-1.742 -1.56,-2.181 -2.101,-14.379 -0.912,-20.591995 1.37,-7.161995 10.536,-11.247995 17.33,-7.724995 m 77.570008,-0.573 c 0.443,0.245 1.408,0.741 2.145,1.101 1.594,0.78 4.773,3.926995 5.335,5.281995 0.219,0.528 0.587,1.116 0.819,1.308 0.231,0.192 0.61,1.027 0.843,1.855995 0.233,0.828 0.762,2.592 1.175,3.919 1.011,3.242 1.318,6.663 0.663,7.386 -0.742,0.82 -30.335,0.817 -31.078,-0.003 -0.55,-0.609 -0.397,-2.903 0.305,-4.568 0.218,-0.516 0.629,-2.019 0.914,-3.341 0.285,-1.321 0.796,-2.829 1.135,-3.351 0.34,-0.521995 0.783,-1.358995 0.986,-1.860995 2.252,-5.565995 12.302,-10.199995 16.758,-7.727995 m 124.56,2.177 c 0.795,0.417 1.901,0.921 2.458,1.121 1.85,0.664 5.508,4.026995 6.248,5.743995 0.223,0.515995 0.705,1.372995 1.072,1.904995 0.617,0.893 1.437,3.375 2.427,7.345 1.107,4.443 0.731,22.241 -0.543,25.645 -0.35,0.935 -0.719,2.2 -0.82,2.811 -0.101,0.611 -0.598,1.753 -1.104,2.538 -0.506,0.785 -0.92,1.506 -0.92,1.602 0,0.962 -6.041,6.679 -7.06,6.68 -0.172,0.001 -1.036,0.393 -1.921,0.872 l -1.608,0.87 h -5.094 c -4.873,0 -5.141,-0.027 -6.166,-0.633 -0.589,-0.348 -1.656,-0.863 -2.371,-1.145 -2.108,-0.831 -7.951,-6.192 -7.951,-7.295 0,-0.143 -0.302,-0.655 -0.67,-1.138 l -0.671,-0.879 v -17.958 -17.958 l 0.717,-1.43 c 1.294,-2.578985 5.574,-6.51199 8.159,-7.49599 0.68,-0.259 1.73,-0.728 2.333,-1.043 2.607,-1.358 11.005,-1.457 13.485,-0.158 M 98.738437,155.00931 c 0.811,0.343 2.215003,0.832 3.121003,1.087 0.906,0.255 2.033,0.754 2.503,1.11 2.125,1.607 3.754,3.305 4.056,4.227 0.176,0.538 0.486,1.233 0.689,1.544 0.812,1.25 0.761,3.851 -0.115,5.881 -0.443,1.025 -0.851,2.009 -0.905,2.186 -0.142,0.456 -2.919,3.297 -3.224,3.297 -0.139,0 -0.526,0.294 -0.859,0.654 -0.333,0.36 -1.262,0.912 -2.065,1.227 -0.802,0.315 -1.703,0.8 -2.001003,1.078 -0.299,0.278 -1.38001,0.7 -2.402005,0.937 -1.023,0.237 -2.391,0.673 -3.04,0.969 -2.684,1.223 -13.685,1.364 -16.868,0.217 -0.849,-0.306 -2.421,-0.776 -3.493,-1.043 -1.071,-0.268 -2.398,-0.797 -2.949,-1.175 -0.55,-0.379 -1.322,-0.809 -1.715,-0.957 -1.675,-0.627 -4.502,-3.142 -6.1,-5.424 -1.873,-2.675 -1.901,-7.613 -0.062,-10.662 0.859,-1.422 3.218,-4.051 3.636,-4.051 0.165,0 0.781,-0.328 1.368,-0.727 1.577,-1.074 2.086,-1.108 16.081,-1.051 12.817,0.051 12.875,0.054 14.343995,0.676"
     stroke="none"
     fill="#858d93"
     fill-rule="evenodd" />
  <path
     id="path2"
     d="m 0.52243266,0.56931933 c -0.727,0.80199997 -0.68,230.57999067 0.046,231.23699067 0.80300004,0.727 366.50500734,0.681 367.16300734,-0.046 0.726,-0.803 0.68,-230.5799907 -0.047,-231.23799067 -0.803,-0.727 -366.5040073,-0.68 -367.16200734,0.047 M 221.59344,46.66032 c 0.375,0.421 0.428,5.53 0.519,49.262995 0.077,37.275995 0.177,48.928995 0.422,49.369995 0.625,1.118 4.484,2.239 7.708,2.239 3.709,0 3.884,0.164 3.884,3.637 0,3.418 1.896,3.093 -17.982,3.081 -20.094,-0.012 -18.211,0.309 -18.211,-3.105 0,-3.364 0.277,-3.613 4.013,-3.613 3.125,0 6.081,-0.859 7.36,-2.139 0.625,-0.625 0.996,-60.83799 0.48,-77.88799 l -0.243,-8.043 -0.863,-1.536 c -1.037,-1.849 -1.913,-2.203 -6.591,-2.666 -3.916,-0.387 -4.156,-0.615 -4.156,-3.948 0,-3.201 -0.116,-3.124 5.265,-3.492 2.379,-0.163 5.637,-0.475 7.238,-0.695 2.528,-0.347 7.274,-0.776 9.909,-0.896 0.491,-0.023 1,0.153 1.248,0.431 m 42.07,-0.025 c 0.467,0.423 0.49,1.465 0.49,22.267 0,24.166 0.082,25.426 1.559,24.129 0.248,-0.218 0.934,-0.639 1.524,-0.936 0.59,-0.296 1.296,-0.786 1.57,-1.088 0.273,-0.302 0.833,-0.624 1.244,-0.714 0.411,-0.09 1.302,-0.516 1.98,-0.945 0.677,-0.43 2.349,-1.076 3.715,-1.436 1.366,-0.36 3.147,-0.855 3.958,-1.1 2.475,-0.748 10.89,-0.677 13.002,0.11 0.885,0.33 2.446,0.825 3.468,1.1 1.023,0.275 2.192,0.747 2.598,1.047 0.407,0.301 1.41,0.843 2.23,1.206 0.819,0.362 1.49,0.764 1.49,0.892 0,0.129 0.477,0.502 1.06,0.829 1.293,0.727 5.666,5.026005 6.572,6.460005 0.361,0.572 0.785,1.12 0.941,1.21699 0.156,0.096 0.574,0.746995 0.928,1.446995 0.355,0.699 0.828,1.423 1.053,1.61 0.224,0.186 0.671,1.143 0.992,2.127 0.322,0.985 0.823,2.186 1.115,2.67 0.492,0.817 1,3.223 1.966,9.307 0.476,3.001 0.476,6.131 10e-4,8.58 -0.2,1.032 -0.614,3.198 -0.919,4.814 -0.321,1.706 -0.767,3.226 -1.063,3.626 -0.28,0.379 -0.704,1.36 -0.943,2.181 -0.238,0.821 -0.661,1.783 -0.938,2.138 -0.278,0.355 -0.821,1.27 -1.206,2.034 -0.386,0.764 -0.83,1.467 -0.986,1.564 -0.156,0.097 -0.568,0.626 -0.915,1.176 -0.889,1.407 -6.284,6.863 -7.275,7.356 -0.454,0.226 -0.992,0.612 -1.196,0.858 -0.205,0.247 -1.036,0.742 -1.848,1.101 -0.812,0.359 -1.669,0.827 -1.904,1.04 -0.235,0.213 -1.325,0.62 -2.422,0.905 -1.097,0.284 -2.718,0.794 -3.603,1.133 -2.218,0.85 -12.079,0.945 -14.075,0.135 -0.664,-0.269 -2.168,-0.783 -3.343,-1.141 -1.174,-0.359 -2.383,-0.884 -2.684,-1.168 -0.302,-0.283 -1.03,-0.716 -1.617,-0.961 -1.162,-0.484 -2.035,-1.169 -5.017,-3.935 -1.073,-0.995 -2.026,-1.809 -2.118,-1.81 -0.383,-0.002 -2.636,3.041 -2.934,3.963 -0.378,1.173 -1.949,3.418 -2.553,3.649 -0.9,0.346 -4.619,0.172 -5.025,-0.235 -0.347,-0.346 -0.409,-6.301 -0.489,-46.984 l -0.091,-46.58699 -0.636,-1.292 c -1.412,-2.867 -2.568,-3.419 -8.024,-3.828 -3.071,-0.23 -3.271,-0.47 -3.271,-3.94 0,-3.06 -0.07,-3.013 5.094,-3.383 2.286,-0.164 5.603,-0.481 7.373,-0.706 2.793,-0.354 7.393,-0.767 9.898,-0.888 0.431,-0.021 1.004,0.162 1.274,0.406 m -146.923,37.598 c 1.31,0.304 2.89,1.617 4.152,3.449 l 1.036,1.504 v 2.888 2.888 l -1.207,1.241995 c -4.064,4.185995 -9.216,1.487 -9.874,-5.173995 -0.171,-1.731 -0.212,-1.813 -0.928,-1.895 -1.094,-0.126 -4.454,1.233 -5.619,2.272 -0.554,0.493 -1.119,0.897 -1.256,0.897 -0.609,0 -0.578,1.143 0.058,2.096 2.177,3.258995 2.999,5.115995 4.358,9.83399 0.668,2.319 0.406,8.005 -0.42,9.115 -0.11,0.148 -0.453,1.172 -0.764,2.277 -0.31,1.105 -0.815,2.35 -1.123,2.766 -0.307,0.416 -0.764,1.213 -1.014,1.772 -0.54,1.207 -1.508,2.434 -3.565,4.519 -3.464008,3.512 -5.092008,4.5 -10.282008,6.238 -4.234,1.417 -12.644,1.569 -15.557,0.281 -0.706,-0.312 -2.018,-0.757 -2.916,-0.988 -0.899,-0.232 -2.277,-0.788 -3.064,-1.236 -1.758,-1.002 -2.301,-0.837 -3.423,1.037 -1.03,1.719 -1.163,6.093 -0.228,7.463 0.303,0.442 0.702,1.157 0.887,1.589 0.399,0.925 2.513,2.865 3.501,3.212 0.381,0.134 6.002,0.32 12.49,0.415 12.734,0.185 19.110008,0.81 22.520008,2.207 0.737,0.302 2.124,0.845 3.083,1.207 0.958,0.361 1.984,0.875 2.279,1.143 0.294,0.267 0.898,0.67 1.34,0.896 1.076,0.547 4.352,3.84 4.989,5.015 0.28,0.516 0.755,1.245 1.055,1.62 0.301,0.375 0.733,1.395 0.96,2.267 0.228,0.872 0.676,2.073 0.995,2.669 0.863,1.613 0.873,8.631 0.015,10.084 -0.312,0.526 -0.767,1.563 -1.013,2.304 -0.684,2.057 -5.69,7.021 -8.095,8.026 -0.559,0.233 -1.386,0.704 -1.838,1.045 -0.452,0.342 -1.364,0.763 -2.028,0.936 -0.663,0.173 -1.694,0.597 -2.291,0.943 -0.597,0.345 -2.098,0.819 -3.337,1.054 -1.239003,0.235 -3.043008,0.663 -4.009008,0.95 -4.421,1.314 -16.16,1.467 -20.524,0.267 -1.179,-0.324 -3.23,-0.807 -4.557,-1.072 -1.379,-0.276 -3.085,-0.837 -3.982,-1.311 -0.863,-0.455 -1.774,-0.828 -2.025,-0.828 -0.251,0 -1.028,-0.362 -1.726,-0.805 -0.699,-0.443 -1.7,-0.985 -2.225,-1.205 -1.833,-0.765 -6.56,-5.052 -7.391,-6.703 -0.297,-0.59 -0.757,-1.314 -1.022,-1.609 -1.509,-1.678 -1.677,-9.587 -0.25,-11.794 0.286,-0.444 0.742,-1.255 1.012,-1.804 0.895,-1.817 4.517,-5.257 6.442,-6.119 1.931,-0.864 2.23,-2.539 0.711,-3.972 -0.516,-0.487 -0.938,-1.039 -0.938,-1.228 0,-0.189 -0.308,-0.797 -0.684,-1.351 -2.875,-4.237 -1.805,-15.85 1.833,-19.901 l 0.533,-0.592 -0.698,-1.418 c -0.383,-0.78 -1.079,-1.88 -1.546,-2.443 -4.072,-4.912 -5.496,-17.605 -2.415,-21.520995 0.293,-0.373 0.674,-1.123 0.846,-1.667 0.172,-0.544 0.637,-1.411 1.034,-1.927 0.397,-0.515995 0.984,-1.368995 1.303,-1.894995 1.005,-1.654 5.22,-5.33 6.931,-6.045 0.538,-0.225 1.306,-0.651 1.707,-0.947 0.401,-0.297 1.681,-0.821 2.846,-1.166 1.164,-0.345 2.66,-0.843 3.323,-1.107 2.007,-0.799 10.821,-0.717 13.003,0.121 0.884,0.34 2.332,0.798 3.217,1.019 0.885,0.221 2.031,0.69 2.547,1.043 2.873,1.964 5.206005,1.951 7.594008,-0.042 0.417,-0.348 1.081,-0.71 1.475,-0.805 0.394,-0.095 1.408,-0.518 2.253,-0.94 2.328,-1.162 8.587,-1.739 11.506,-1.06 m 50.135,0.719 c 0.789,0.223 2.571,0.703 3.962,1.066 1.391,0.363 2.722,0.836 2.959,1.05 0.237,0.214 1.029,0.652 1.761,0.973 1.943,0.852 5.853,4.247 6.637,5.763 0.232,0.45 0.621,0.983 0.864,1.184 0.243,0.202 0.791,1.058995 1.218,1.904995 0.427,0.846 0.896,1.612 1.043,1.702 0.146,0.091 0.523,1.034 0.838,2.096995 0.315,1.064 0.676,2.061 0.802,2.217 1.174,1.446 2.106,13.652 1.117,14.64 -0.637,0.638 -3.447,0.729 -23.032,0.744 -18.659,0.015 -20.19,0.05 -20.615,0.475 -0.56,0.56 -0.361,8.446 0.283,11.203 0.929,3.98 1.954,7.397 2.35,7.835 0.237,0.262 0.684,1.066 0.993,1.788 1.377,3.213 6.86,8.127 9.647,8.646 0.525,0.098 1.8,0.483 2.832,0.856 2.891,1.044 7.524,1.019 10.325,-0.055 1.104,-0.424 2.329,-0.887 2.722,-1.029 2.372,-0.859 7.614,-7.529 8.648,-11.005 0.657,-2.208 1.554,-2.88 3.848,-2.88 2.427,0 3.08,2.637 1.393,5.622 -0.294,0.52 -0.844,1.603 -1.222,2.407 -0.707,1.501 -0.9,1.771 -3.573,4.973 -1.799,2.156 -4.289,4.395 -5.653,5.085 -0.516,0.261 -1.18,0.69 -1.475,0.954 -0.295,0.264 -1.187,0.67 -1.982,0.904 -0.795,0.233 -2.243,0.757 -3.217,1.164 -2.662,1.111 -11.124,1.115 -14.238,0.006 -1.106,-0.394 -2.614,-0.846 -3.351,-1.004 -2.374,-0.509 -6.81,-2.941 -10.493,-5.754 -1.63,-1.244 -4.902,-4.704 -5.892,-6.23 -0.495,-0.764 -1.037,-1.473 -1.203,-1.576 -0.165,-0.102 -0.547,-0.744 -0.847,-1.425 -0.3,-0.681 -0.819,-1.601 -1.152,-2.043 -0.334,-0.443 -0.81,-1.51 -1.06,-2.373 -0.249,-0.863 -0.734,-2.13 -1.077,-2.815 -2.352,-4.692 -2.317,-19.487 0.058,-24.705 0.37,-0.811 0.849,-2.06 1.067,-2.776 0.217,-0.716 0.749,-1.79 1.181,-2.386 0.432,-0.597 0.785,-1.238 0.785,-1.426 0,-0.188 0.394,-0.862995 0.874,-1.500995 0.481,-0.638 1.087,-1.492 1.347,-1.898 0.759,-1.184 6.272,-6.575995 7.228,-7.070995 0.48,-0.248 1.295,-0.782 1.811,-1.187 0.516,-0.404 1.24,-0.82 1.609,-0.923 0.369,-0.104 1.104,-0.482 1.635,-0.841 0.531,-0.358 2.083,-0.951 3.449,-1.316 1.366,-0.366 2.621,-0.751 2.788,-0.857 1.403,-0.888 9.107,-1.005 12.008,-0.183 m -88.647008,5.446 c -3.911,1.049 -7.58,4.878 -8.305,8.667995 -1.189,6.212995 -0.648,18.410995 0.912,20.591995 0.267,0.373 0.732,1.157 1.033,1.742 0.731,1.422 1.698,2.284 3.947,3.519 l 1.877,1.031 3.753,-0.007 3.754,-0.006 2.075,-1.101 c 2.496,-1.325 4.311,-3.217 5.029,-5.245 0.276,-0.779 0.71,-1.828 0.964,-2.333 1.171,-2.325 0.967,-15.767 -0.288,-18.921995 -0.41,-1.032 -0.856,-2.186 -0.991,-2.565 -1.355,-3.803995 -8.788,-6.705995 -13.76,-5.372995 m 80.101008,0.006 c -3.905,0.995 -9.026,5.033 -10.264,8.091995 -0.203,0.502 -0.646,1.339 -0.986,1.860995 -0.339,0.522 -0.85,2.03 -1.135,3.351 -0.285,1.322 -0.696,2.825 -0.914,3.341 -0.702,1.665 -0.855,3.959 -0.305,4.568 0.743,0.82 30.336,0.823 31.078,0.003 0.655,-0.723 0.348,-4.144 -0.663,-7.386 -0.413,-1.327 -0.942,-3.091 -1.175,-3.919 -0.233,-0.828995 -0.612,-1.663995 -0.843,-1.855995 -0.232,-0.192 -0.6,-0.78 -0.819,-1.308 -0.562,-1.355 -3.741,-4.501995 -5.335,-5.281995 -0.737,-0.36 -1.702,-0.856 -2.145,-1.101 -0.906,-0.503 -5.039,-0.734 -6.494,-0.364 m 119.953,1.896 c -0.707,0.127 -1.78,0.488 -2.384,0.803 -0.603,0.315 -1.653,0.784 -2.333,1.043 -2.585,0.984 -6.865,4.916995 -8.159,7.49599 l -0.717,1.43 v 17.958 17.958 l 0.671,0.879 c 0.368,0.483 0.67,0.995 0.67,1.138 0,1.103 5.843,6.464 7.951,7.295 0.715,0.282 1.782,0.797 2.371,1.145 1.025,0.606 1.293,0.633 6.166,0.633 h 5.094 l 1.608,-0.87 c 0.885,-0.479 1.749,-0.871 1.921,-0.872 1.019,-0.001 7.06,-5.718 7.06,-6.68 0,-0.096 0.414,-0.817 0.92,-1.602 0.506,-0.785 1.003,-1.927 1.104,-2.538 0.101,-0.611 0.47,-1.876 0.82,-2.811 1.274,-3.404 1.65,-21.202 0.543,-25.645 -0.99,-3.97 -1.81,-6.452 -2.427,-7.345 -0.367,-0.532 -0.849,-1.389 -1.072,-1.904995 -0.74,-1.717 -4.398,-5.079995 -6.248,-5.743995 -0.557,-0.2 -1.663,-0.704 -2.458,-1.121 -1.572,-0.823 -8.027,-1.199 -11.101,-0.645 M 70.453432,154.46931 c -0.589,0.103 -1.552,0.515 -2.14,0.915 -0.587,0.399 -1.203,0.727 -1.368,0.727 -0.418,0 -2.777,2.629 -3.636,4.051 -1.839,3.049 -1.811,7.987 0.062,10.662 1.598,2.282 4.425,4.797 6.1,5.424 0.393,0.148 1.165,0.578 1.715,0.957 0.551,0.378 1.878,0.907 2.949,1.175 1.072,0.267 2.644,0.737 3.493,1.043 3.183,1.147 14.184,1.006 16.868,-0.217 0.649,-0.296 2.017,-0.732 3.04,-0.969 1.021995,-0.237 2.103005,-0.659 2.402005,-0.937 0.298003,-0.278 1.199003,-0.763 2.001003,-1.078 0.803,-0.315 1.732,-0.867 2.065,-1.227 0.333,-0.36 0.72,-0.654 0.859,-0.654 0.305,0 3.082,-2.841 3.224,-3.297 0.054,-0.177 0.462,-1.161 0.905,-2.186 0.876,-2.03 0.927,-4.631 0.115,-5.881 -0.203,-0.311 -0.513,-1.006 -0.689,-1.544 -0.302,-0.922 -1.931,-2.62 -4.056,-4.227 -0.47,-0.356 -1.597,-0.855 -2.503,-1.11 -0.906,-0.255 -2.310013,-0.744 -3.121003,-1.087 -1.515005,-0.642 -25.132005,-1.092 -28.285005,-0.54"
     stroke="none"
     fill="#fbfb04"
     fill-rule="evenodd" />
</svg>
